<svg width="272" height="243" viewBox="0 0 272 243" fill="none" xmlns="http://www.w3.org/2000/svg">
<path d="M222.952 200.737C218.176 195.447 214.125 189.545 210.906 183.185C205.82 173.218 198.791 164.369 190.233 157.161C181.674 149.952 171.76 144.529 161.073 141.212C151.729 138.322 141.95 137.096 132.181 137.588C139.291 137.182 146.292 139.478 151.781 144.016C157.27 148.553 160.841 154.998 161.779 162.057C164.35 177.311 171.11 191.551 181.306 203.184C191.502 214.817 204.732 223.387 219.517 227.935C236.423 233.131 254.54 232.851 271.278 227.136C252.634 224.095 235.585 214.782 222.952 200.737Z" fill="#F9FAFB"/>
<path d="M102.298 138.532C104.471 148.077 108.293 157.17 113.592 165.401C109.722 159.424 108.233 152.214 109.418 145.194C110.602 138.172 114.375 131.85 119.991 127.474C131.919 117.608 140.875 104.623 145.86 89.9679C150.844 75.3124 151.663 59.5609 148.225 44.4677C144.3 27.2016 134.99 11.6298 121.638 0C128.285 17.7687 128.667 37.2748 122.721 55.2906C120.444 62.092 117.279 68.5632 113.309 74.5364C107.214 83.9198 103.061 94.4307 101.097 105.447C99.1329 116.463 99.3973 127.761 101.875 138.673L102.298 138.532Z" fill="#F9FAFB"/>
<path d="M147.238 167.334C144.036 173.699 138.547 178.618 131.871 181.105C125.195 183.593 117.825 183.464 111.24 180.745C96.7274 175.306 80.9882 174.01 65.7817 177.002C50.5746 179.993 36.4993 187.154 25.1283 197.685C12.163 209.746 3.36355 225.614 0 243C12.0646 228.355 28.7633 218.262 47.3381 214.39C54.3165 212.962 61.4455 212.408 68.5603 212.743C79.7205 213.321 90.8831 211.658 101.39 207.851C111.896 204.045 121.533 198.172 129.733 190.58C136.909 183.916 142.865 176.049 147.332 167.334H147.238Z" fill="#F9FAFB"/>
</svg>
