<svg width="1462" height="259" viewBox="0 0 1462 259" fill="none" xmlns="http://www.w3.org/2000/svg">
<path d="M412.541 78.8H368.941V204H352.341V78.8H308.741V64H412.541V78.8ZM457.585 119.4C453.585 118.067 449.785 117.4 446.185 117.4C440.452 117.4 435.918 119 432.585 122.2C429.252 125.267 427.185 129.2 426.385 134V204H410.385V104H421.585L424.585 116.2H425.385C427.918 111.667 430.918 108.2 434.385 105.8C437.985 103.267 442.518 102 447.985 102C451.852 102 456.185 102.667 460.985 104L457.585 119.4ZM476.754 111.4C481.82 108.333 487.687 106.067 494.354 104.6C501.154 103.133 508.22 102.4 515.554 102.4C522.487 102.4 528.02 103.333 532.154 105.2C536.42 107.067 539.62 109.533 541.754 112.6C544.02 115.533 545.487 118.8 546.154 122.4C546.954 126 547.354 129.6 547.354 133.2C547.354 141.2 547.154 149 546.754 156.6C546.354 164.2 546.154 171.4 546.154 178.2C546.154 183.133 546.354 187.8 546.754 192.2C547.154 196.6 547.887 200.667 548.954 204.4H537.154L532.954 190.4H531.954C530.754 192.267 529.22 194.133 527.354 196C525.62 197.733 523.487 199.333 520.954 200.8C518.42 202.133 515.487 203.267 512.154 204.2C508.82 205.133 505.02 205.6 500.754 205.6C496.487 205.6 492.487 204.933 488.754 203.6C485.154 202.267 482.02 200.4 479.354 198C476.687 195.467 474.554 192.467 472.954 189C471.487 185.533 470.754 181.6 470.754 177.2C470.754 171.333 471.954 166.467 474.354 162.6C476.754 158.6 480.087 155.467 484.354 153.2C488.754 150.8 493.954 149.133 499.954 148.2C506.087 147.133 512.82 146.6 520.154 146.6C522.02 146.6 523.82 146.6 525.554 146.6C527.42 146.6 529.287 146.733 531.154 147C531.554 143 531.754 139.4 531.754 136.2C531.754 128.867 530.287 123.733 527.354 120.8C524.42 117.867 519.087 116.4 511.354 116.4C509.087 116.4 506.62 116.6 503.954 117C501.42 117.267 498.754 117.733 495.954 118.4C493.287 118.933 490.687 119.667 488.154 120.6C485.754 121.4 483.62 122.333 481.754 123.4L476.754 111.4ZM505.154 191.6C508.887 191.6 512.22 191.133 515.154 190.2C518.087 189.133 520.62 187.867 522.754 186.4C524.887 184.8 526.62 183.067 527.954 181.2C529.42 179.333 530.487 177.533 531.154 175.8V159.2C529.287 159.067 527.354 159 525.354 159C523.487 158.867 521.62 158.8 519.754 158.8C515.62 158.8 511.554 159.067 507.554 159.6C503.687 160 500.22 160.867 497.154 162.2C494.22 163.4 491.82 165.133 489.954 167.4C488.22 169.533 487.354 172.267 487.354 175.6C487.354 180.267 489.02 184.133 492.354 187.2C495.687 190.133 499.954 191.6 505.154 191.6ZM641.772 204V147C641.772 136.6 640.239 128.8 637.172 123.6C634.239 118.267 628.772 115.6 620.772 115.6C613.706 115.6 607.839 117.533 603.172 121.4C598.639 125.133 595.439 129.867 593.572 135.6V204H577.572V104H588.772L591.772 116.2H592.572C595.772 111.933 600.039 108.467 605.372 105.8C610.839 103 617.306 101.6 624.772 101.6C630.239 101.6 635.039 102.267 639.172 103.6C643.306 104.8 646.706 107 649.372 110.2C652.172 113.4 654.239 117.733 655.572 123.2C657.039 128.533 657.772 135.333 657.772 143.6V204H641.772ZM730.947 176.8C730.947 172.8 729.747 169.667 727.347 167.4C724.947 165.133 721.947 163.267 718.347 161.8C714.881 160.2 711.014 158.733 706.747 157.4C702.614 155.933 698.747 154.133 695.147 152C691.681 149.733 688.747 146.867 686.347 143.4C683.947 139.933 682.747 135.267 682.747 129.4C682.747 119.8 685.481 112.8 690.947 108.4C696.414 103.867 704.014 101.6 713.747 101.6C720.947 101.6 726.947 102.267 731.747 103.6C736.681 104.8 740.947 106.267 744.547 108L740.747 121.2C737.681 119.733 733.947 118.467 729.547 117.4C725.281 116.2 720.681 115.6 715.747 115.6C709.881 115.6 705.547 116.6 702.747 118.6C700.081 120.6 698.747 124.067 698.747 129C698.747 132.467 699.947 135.2 702.347 137.2C704.747 139.067 707.681 140.8 711.147 142.4C714.747 143.867 718.614 145.333 722.747 146.8C727.014 148.267 730.881 150.2 734.347 152.6C737.947 155 740.947 158.067 743.347 161.8C745.747 165.4 746.947 170.2 746.947 176.2C746.947 180.467 746.214 184.467 744.747 188.2C743.414 191.933 741.281 195.133 738.347 197.8C735.414 200.467 731.747 202.533 727.347 204C723.081 205.6 718.014 206.4 712.147 206.4C704.547 206.4 698.081 205.667 692.747 204.2C687.414 202.733 682.947 201 679.347 199L684.147 185.4C687.214 187.133 691.214 188.733 696.147 190.2C701.081 191.667 706.081 192.4 711.147 192.4C716.881 192.4 721.614 191.267 725.347 189C729.081 186.733 730.947 182.667 730.947 176.8ZM788.927 179.4C788.927 184.067 789.727 187.4 791.327 189.4C792.927 191.4 795.194 192.4 798.127 192.4C799.86 192.4 801.727 192.267 803.727 192C805.727 191.733 807.994 191.133 810.527 190.2L812.327 202.8C810.194 203.867 807.194 204.733 803.327 205.4C799.594 206.067 796.327 206.4 793.527 206.4C787.527 206.4 782.594 204.733 778.727 201.4C774.86 197.933 772.927 192.133 772.927 184V64H788.927V179.4ZM827.925 111.4C832.992 108.333 838.859 106.067 845.525 104.6C852.325 103.133 859.392 102.4 866.725 102.4C873.659 102.4 879.192 103.333 883.325 105.2C887.592 107.067 890.792 109.533 892.925 112.6C895.192 115.533 896.659 118.8 897.325 122.4C898.125 126 898.525 129.6 898.525 133.2C898.525 141.2 898.325 149 897.925 156.6C897.525 164.2 897.325 171.4 897.325 178.2C897.325 183.133 897.525 187.8 897.925 192.2C898.325 196.6 899.059 200.667 900.125 204.4H888.325L884.125 190.4H883.125C881.925 192.267 880.392 194.133 878.525 196C876.792 197.733 874.659 199.333 872.125 200.8C869.592 202.133 866.659 203.267 863.325 204.2C859.992 205.133 856.192 205.6 851.925 205.6C847.659 205.6 843.659 204.933 839.925 203.6C836.325 202.267 833.192 200.4 830.525 198C827.859 195.467 825.725 192.467 824.125 189C822.659 185.533 821.925 181.6 821.925 177.2C821.925 171.333 823.125 166.467 825.525 162.6C827.925 158.6 831.259 155.467 835.525 153.2C839.925 150.8 845.125 149.133 851.125 148.2C857.259 147.133 863.992 146.6 871.325 146.6C873.192 146.6 874.992 146.6 876.725 146.6C878.592 146.6 880.459 146.733 882.325 147C882.725 143 882.925 139.4 882.925 136.2C882.925 128.867 881.459 123.733 878.525 120.8C875.592 117.867 870.259 116.4 862.525 116.4C860.259 116.4 857.792 116.6 855.125 117C852.592 117.267 849.925 117.733 847.125 118.4C844.459 118.933 841.859 119.667 839.325 120.6C836.925 121.4 834.792 122.333 832.925 123.4L827.925 111.4ZM856.325 191.6C860.059 191.6 863.392 191.133 866.325 190.2C869.259 189.133 871.792 187.867 873.925 186.4C876.059 184.8 877.792 183.067 879.125 181.2C880.592 179.333 881.659 177.533 882.325 175.8V159.2C880.459 159.067 878.525 159 876.525 159C874.659 158.867 872.792 158.8 870.925 158.8C866.792 158.8 862.725 159.067 858.725 159.6C854.859 160 851.392 160.867 848.325 162.2C845.392 163.4 842.992 165.133 841.125 167.4C839.392 169.533 838.525 172.267 838.525 175.6C838.525 180.267 840.192 184.133 843.525 187.2C846.859 190.133 851.125 191.6 856.325 191.6ZM915.544 104H931.144V84.2L947.144 79.6V104H974.344V118H947.144V173.4C947.144 180.333 948.011 185.267 949.744 188.2C951.478 191 954.411 192.4 958.544 192.4C962.011 192.4 964.944 192.067 967.344 191.4C969.744 190.6 972.411 189.6 975.344 188.4L978.944 200.6C975.344 202.333 971.411 203.733 967.144 204.8C962.878 205.867 958.278 206.4 953.344 206.4C945.211 206.4 939.478 204.133 936.144 199.6C932.811 194.933 931.144 187.2 931.144 176.4V118H915.544V104ZM1067.37 196C1063.37 199.2 1058.3 201.733 1052.17 203.6C1046.17 205.467 1039.77 206.4 1032.97 206.4C1025.37 206.4 1018.77 205.2 1013.17 202.8C1007.57 200.267 1002.97 196.733 999.369 192.2C995.769 187.533 993.103 182 991.369 175.6C989.636 169.2 988.769 162 988.769 154C988.769 136.933 992.569 123.933 1000.17 115C1007.77 106.067 1018.64 101.6 1032.77 101.6C1037.3 101.6 1041.84 102.133 1046.37 103.2C1050.9 104.133 1054.97 106 1058.57 108.8C1062.17 111.6 1065.1 115.6 1067.37 120.8C1069.64 125.867 1070.77 132.6 1070.77 141C1070.77 145.4 1070.37 150.267 1069.57 155.6H1005.37C1005.37 161.467 1005.97 166.667 1007.17 171.2C1008.37 175.733 1010.24 179.6 1012.77 182.8C1015.3 185.867 1018.57 188.267 1022.57 190C1026.7 191.6 1031.7 192.4 1037.57 192.4C1042.1 192.4 1046.64 191.6 1051.17 190C1055.7 188.4 1059.1 186.533 1061.37 184.4L1067.37 196ZM1032.97 115.6C1025.1 115.6 1018.77 117.667 1013.97 121.8C1009.3 125.933 1006.5 133 1005.57 143H1055.17C1055.17 132.867 1053.24 125.8 1049.37 121.8C1045.5 117.667 1040.04 115.6 1032.97 115.6ZM1211.01 165.2H1159.41L1145.41 204H1129.01L1182.01 61.8H1189.61L1242.81 204H1225.41L1211.01 165.2ZM1164.81 150.8H1206.01L1190.41 108.2L1185.41 87H1185.21L1180.21 108.6L1164.81 150.8ZM1259.8 104H1270.8L1273.8 116H1274.6C1277.67 111.333 1281.6 107.8 1286.4 105.4C1291.33 102.867 1296.93 101.6 1303.2 101.6C1316.53 101.6 1326.47 105.533 1333 113.4C1339.53 121.267 1342.8 134.133 1342.8 152C1342.8 160.4 1341.67 168 1339.4 174.8C1337.27 181.467 1334.2 187.133 1330.2 191.8C1326.2 196.467 1321.33 200.067 1315.6 202.6C1310 205.133 1303.73 206.4 1296.8 206.4C1291.87 206.4 1287.93 206.067 1285 205.4C1282.2 204.867 1279.13 203.867 1275.8 202.4V244H1259.8V104ZM1300.2 115.6C1293.4 115.6 1288 117.4 1284 121C1280.13 124.467 1277.4 129.8 1275.8 137V186.6C1278.2 188.467 1280.93 189.933 1284 191C1287.07 191.933 1291.13 192.4 1296.2 192.4C1305.4 192.4 1312.67 189 1318 182.2C1323.47 175.267 1326.2 165.133 1326.2 151.8C1326.2 146.333 1325.73 141.4 1324.8 137C1323.87 132.467 1322.33 128.667 1320.2 125.6C1318.2 122.4 1315.53 119.933 1312.2 118.2C1309 116.467 1305 115.6 1300.2 115.6ZM1368 104H1379L1382 116H1382.8C1385.87 111.333 1389.8 107.8 1394.6 105.4C1399.54 102.867 1405.14 101.6 1411.4 101.6C1424.74 101.6 1434.67 105.533 1441.2 113.4C1447.74 121.267 1451 134.133 1451 152C1451 160.4 1449.87 168 1447.6 174.8C1445.47 181.467 1442.4 187.133 1438.4 191.8C1434.4 196.467 1429.54 200.067 1423.8 202.6C1418.2 205.133 1411.94 206.4 1405 206.4C1400.07 206.4 1396.14 206.067 1393.2 205.4C1390.4 204.867 1387.34 203.867 1384 202.4V244H1368V104ZM1408.4 115.6C1401.6 115.6 1396.2 117.4 1392.2 121C1388.34 124.467 1385.6 129.8 1384 137V186.6C1386.4 188.467 1389.14 189.933 1392.2 191C1395.27 191.933 1399.34 192.4 1404.4 192.4C1413.6 192.4 1420.87 189 1426.2 182.2C1431.67 175.267 1434.4 165.133 1434.4 151.8C1434.4 146.333 1433.94 141.4 1433 137C1432.07 132.467 1430.54 128.667 1428.4 125.6C1426.4 122.4 1423.74 119.933 1420.4 118.2C1417.2 116.467 1413.2 115.6 1408.4 115.6Z" fill="#F9FAFB"/>
<path d="M237.633 213.957C232.542 208.319 228.224 202.027 224.793 195.249C219.373 184.626 211.881 175.194 202.76 167.511C193.637 159.828 183.07 154.048 171.68 150.512C161.72 147.432 151.297 146.125 140.885 146.65C148.464 146.217 155.926 148.664 161.776 153.501C167.626 158.337 171.433 165.206 172.432 172.73C175.172 188.989 182.378 204.165 193.245 216.564C204.112 228.964 218.213 238.098 233.972 242.946C251.991 248.484 271.301 248.186 289.141 242.093C269.269 238.852 251.098 228.927 237.633 213.957Z" fill="#F9FAFB"/>
<path d="M109.034 147.654C111.349 157.827 115.423 167.519 121.071 176.292C116.947 169.922 115.359 162.237 116.622 154.754C117.884 147.27 121.906 140.532 127.892 135.868C140.605 125.351 150.15 111.512 155.464 95.8919C160.776 80.2713 161.649 63.4827 157.984 47.3957C153.801 28.9926 143.878 12.3956 129.647 0C136.732 18.9387 137.139 39.7292 130.801 58.9312C128.374 66.1805 125.001 73.0777 120.77 79.4443C114.273 89.4456 109.847 100.648 107.753 112.39C105.66 124.132 105.942 136.174 108.582 147.804L109.034 147.654Z" fill="#F9FAFB"/>
<path d="M156.933 178.352C153.521 185.135 147.67 190.379 140.554 193.03C133.439 195.681 125.584 195.543 118.565 192.646C103.096 186.849 86.3209 185.467 70.1131 188.656C53.9047 191.844 38.9026 199.477 26.7828 210.701C12.9639 223.557 3.58502 240.469 0 259C12.859 243.391 30.6572 232.633 50.4551 228.506C57.893 226.984 65.4914 226.394 73.0747 226.75C84.9698 227.367 96.8673 225.594 108.066 221.537C119.264 217.479 129.536 211.22 138.275 203.128C145.924 196.025 152.272 187.64 157.033 178.352H156.933Z" fill="#F9FAFB"/>
</svg>
